<svg width="448" height="512" xmlns="http://www.w3.org/2000/svg" class="svg-inline--fa fa-draw-polygon fa-w-14">

 <g>
  <title>background</title>
  <rect fill="none" id="canvas_background" height="602" width="802" y="-1" x="-1"/>
 </g>
 <g>
  <title>Layer 1</title>
  <path stroke="null" id="svg_1" d="m299.14286,380.28571c-0.27266,0 -0.52194,0.0779 -0.7946,0.0779l-30.5375,-50.88545c3.94962,-7.14359 6.40353,-15.23759 6.40353,-23.97817s-2.44612,-16.83458 -6.40353,-23.97817l30.5375,-50.88545c0.27266,0.00779 0.52194,0.0779 0.7946,0.0779c27.53828,0 49.85714,-22.31886 49.85714,-49.85714s-22.31886,-49.85714 -49.85714,-49.85714c-18.40819,0 -34.30795,10.08828 -42.93946,24.92857l-163.40679,0c-8.63152,-14.84029 -24.53127,-24.92857 -42.93946,-24.92857c-27.53828,0 -49.85714,22.31886 -49.85714,49.85714c0,18.40819 10.08828,34.30795 24.92857,42.93946l0,163.399c-14.84029,8.63931 -24.92857,24.53906 -24.92857,42.94725c0,27.53828 22.31886,49.85714 49.85714,49.85714c18.40819,0 34.30795,-10.08828 42.93946,-24.92857l163.399,0c8.63931,14.84029 24.53127,24.92857 42.93946,24.92857c27.53828,0 49.85714,-22.31886 49.85714,-49.85714c0.00779,-27.53828 -22.31107,-49.85714 -49.84935,-49.85714zm-224.35715,6.91768l0,-163.40679a49.72082,49.72082 0 0 0 18.01089,-18.01089l162.31616,0l-29.96103,49.93505c-0.27266,-0.00779 -0.52194,-0.0779 -0.7946,-0.0779c-27.53828,0 -49.85714,22.31886 -49.85714,49.85714s22.31886,49.85714 49.85714,49.85714c0.27266,0 0.52194,-0.0779 0.7946,-0.0779l29.96103,49.93505l-162.31616,0a49.66083,49.66083 0 0 0 -18.01089,-18.01089zm137.10714,-81.70339c0,-6.87094 5.59335,-12.46429 12.46429,-12.46429s12.46429,5.59335 12.46429,12.46429s-5.59335,12.46429 -12.46429,12.46429s-12.46429,-5.59335 -12.46429,-12.46429zm99.71429,-124.64286c0,6.87094 -5.59335,12.46429 -12.46429,12.46429s-12.46429,-5.59335 -12.46429,-12.46429s5.59335,-12.46429 12.46429,-12.46429s12.46429,5.59335 12.46429,12.46429zm-261.75,-12.46429c6.87094,0 12.46429,5.59335 12.46429,12.46429s-5.59335,12.46429 -12.46429,12.46429s-12.46429,-5.59335 -12.46429,-12.46429s5.59335,-12.46429 12.46429,-12.46429zm-12.46429,261.75c0,-6.87094 5.59335,-12.46429 12.46429,-12.46429s12.46429,5.59335 12.46429,12.46429s-5.59335,12.46429 -12.46429,12.46429s-12.46429,-5.59335 -12.46429,-12.46429zm261.75,12.46429c-6.87094,0 -12.46429,-5.59335 -12.46429,-12.46429s5.59335,-12.46429 12.46429,-12.46429s12.46429,5.59335 12.46429,12.46429s-5.59335,12.46429 -12.46429,12.46429z" fill="currentColor"/>
  <g stroke="null" id="svg_6">
   <path stroke="null" id="svg_5" d="m419.00681,64.7483l-42.7551,0l0,-42.7551c0,-5.24641 -4.25473,-9.50113 -9.50113,-9.50113l-9.50113,0c-5.24641,0 -9.50113,4.25473 -9.50113,9.50113l0,42.7551l-42.7551,0c-5.24641,0 -9.50113,4.25473 -9.50113,9.50113l0,9.50113c0,5.24641 4.25473,9.50113 9.50113,9.50113l42.7551,0l0,42.7551c0,5.24641 4.25473,9.50113 9.50113,9.50113l9.50113,0c5.24641,0 9.50113,-4.25473 9.50113,-9.50113l0,-42.7551l42.7551,0c5.24641,0 9.50113,-4.25473 9.50113,-9.50113l0,-9.50113c0,-5.24641 -4.25473,-9.50113 -9.50113,-9.50113z" fill="currentColor"/>
  </g>
 </g>
</svg>