<svg width="800" height="600" xmlns="http://www.w3.org/2000/svg">
 <!-- Created with Method Draw - http://github.com/duopixel/Method-Draw/ -->

 <g>
  <title>background</title>
  <rect fill="none" id="canvas_background" height="602" width="802" y="-1" x="-1"/>
  <g display="none" overflow="visible" y="0" x="0" height="100%" width="100%" id="canvasGrid">
   <rect fill="url(#gridpattern)" stroke-width="0" y="0" x="0" height="100%" width="100%"/>
  </g>
 </g>
 <g>
  <title>Layer 1</title>
  <g id="svg_19">
   <path id="svg_18" d="m431.88776,319.13266c-0.06975,0 -0.13353,0.01993 -0.20328,0.01993l-7.8125,-13.01818c1.01044,-1.82757 1.63823,-3.89828 1.63823,-6.13441s-0.6258,-4.30684 -1.63823,-6.13441l7.8125,-13.01818c0.06975,0.00199 0.13353,0.01993 0.20328,0.01993c7.0452,0 12.7551,-5.7099 12.7551,-12.7551s-5.7099,-12.7551 -12.7551,-12.7551c-4.70942,0 -8.7771,2.58092 -10.98533,6.37755l-41.80485,0c-2.20823,-3.79664 -6.27591,-6.37755 -10.98533,-6.37755c-7.0452,0 -12.7551,5.7099 -12.7551,12.7551c0,4.70942 2.58092,8.7771 6.37755,10.98533l0,41.80285c-3.79664,2.21022 -6.37755,6.2779 -6.37755,10.98732c0,7.0452 5.7099,12.7551 12.7551,12.7551c4.70942,0 8.7771,-2.58092 10.98533,-6.37755l41.80285,0c2.21022,3.79664 6.27591,6.37755 10.98533,6.37755c7.0452,0 12.7551,-5.7099 12.7551,-12.7551c0.00199,-7.0452 -5.70791,-12.7551 -12.75311,-12.7551zm-57.39796,1.76977l0,-41.80485a12.72022,12.72022 0 0 0 4.60778,-4.60778l41.52583,0l-7.66502,12.77503c-0.06975,-0.00199 -0.13353,-0.01993 -0.20328,-0.01993c-7.0452,0 -12.7551,5.7099 -12.7551,12.7551s5.7099,12.7551 12.7551,12.7551c0.06975,0 0.13353,-0.01993 0.20328,-0.01993l7.66502,12.77503l-41.52583,0a12.70488,12.70488 0 0 0 -4.60778,-4.60778zm35.07653,-20.90242c0,-1.75781 1.43096,-3.18878 3.18878,-3.18878s3.18878,1.43096 3.18878,3.18878s-1.43096,3.18878 -3.18878,3.18878s-3.18878,-1.43096 -3.18878,-3.18878zm25.5102,-31.88775c0,1.75781 -1.43096,3.18878 -3.18878,3.18878s-3.18878,-1.43096 -3.18878,-3.18878s1.43096,-3.18878 3.18878,-3.18878s3.18878,1.43096 3.18878,3.18878zm-66.96428,-3.18878c1.75781,0 3.18878,1.43096 3.18878,3.18878s-1.43096,3.18878 -3.18878,3.18878s-3.18878,-1.43096 -3.18878,-3.18878s1.43096,-3.18878 3.18878,-3.18878zm-3.18878,66.96428c0,-1.75781 1.43096,-3.18878 3.18878,-3.18878s3.18878,1.43096 3.18878,3.18878s-1.43096,3.18878 -3.18878,3.18878s-3.18878,-1.43096 -3.18878,-3.18878zm66.96428,3.18878c-1.75781,0 -3.18878,-1.43096 -3.18878,-3.18878s1.43096,-3.18878 3.18878,-3.18878s3.18878,1.43096 3.18878,3.18878s-1.43096,3.18878 -3.18878,3.18878z" fill="currentColor"/>
  </g>
  <g stroke="null" id="svg_24">
   <path stroke="null" id="svg_23" d="m464.90818,295.39795l-12.30613,0l0,-12.30613c0,-1.51006 -1.22463,-2.73469 -2.73469,-2.73469l-2.73469,0c-1.51006,0 -2.73469,1.22463 -2.73469,2.73469l0,12.30613l-12.30613,0c-1.51006,0 -2.73469,1.22463 -2.73469,2.73469l0,2.73469c0,1.51006 1.22463,2.73469 2.73469,2.73469l12.30613,0l0,12.30613c0,1.51006 1.22463,2.73469 2.73469,2.73469l2.73469,0c1.51006,0 2.73469,-1.22463 2.73469,-2.73469l0,-12.30613l12.30613,0c1.51006,0 2.73469,-1.22463 2.73469,-2.73469l0,-2.73469c0,-1.51006 -1.22463,-2.73469 -2.73469,-2.73469z" fill="currentColor"/>
  </g>
  <ellipse ry="5.9055" rx="7.0866" id="svg_25" cy="268.89723" cx="368.10966" stroke-width="1.5" stroke="#000" fill="#000000"/>
  <ellipse ry="4.3307" rx="3.74015" id="svg_26" cy="267.71613" cx="431.69224" stroke-width="1.5" stroke="#000" fill="#000000"/>
  <ellipse ry="3.74015" rx="4.3307" id="svg_27" cy="330.90501" cx="431.49539" stroke-width="1.5" stroke="#000" fill="#000000"/>
  <ellipse ry="4.13385" rx="4.3307" id="svg_28" cy="299.01529" cx="412.99148" stroke-width="1.5" stroke="#000" fill="#000000"/>
  <ellipse ry="4.3307" rx="4.92125" id="svg_29" cy="331.49556" cx="368.30651" stroke-width="1.5" stroke="#000" fill="#000000"/>
 </g>
</svg>